%TF.GenerationSoftware,KiCad,Pcbnew,(6.0.7)*%
%TF.CreationDate,2024-02-17T17:29:39-05:00*%
%TF.ProjectId,temp_fan_controller,74656d70-5f66-4616-9e5f-636f6e74726f,rev?*%
%TF.SameCoordinates,Original*%
%TF.FileFunction,Soldermask,Bot*%
%TF.FilePolarity,Negative*%
%FSLAX46Y46*%
G04 Gerber Fmt 4.6, Leading zero omitted, Abs format (unit mm)*
G04 Created by KiCad (PCBNEW (6.0.7)) date 2024-02-17 17:29:39*
%MOMM*%
%LPD*%
G01*
G04 APERTURE LIST*
%ADD10R,1.300000X1.300000*%
%ADD11C,1.300000*%
%ADD12C,1.524000*%
%ADD13C,1.600000*%
%ADD14O,1.600000X1.600000*%
%ADD15R,2.000000X1.905000*%
%ADD16O,2.000000X1.905000*%
%ADD17R,4.000000X2.200000*%
%ADD18R,2.200000X4.000000*%
G04 APERTURE END LIST*
D10*
%TO.C,U4*%
X124000000Y-79000000D03*
D11*
X125270000Y-80270000D03*
X124000000Y-81540000D03*
%TD*%
D12*
%TO.C,U2*%
X97585000Y-112430000D03*
X100125000Y-112430000D03*
X102665000Y-112430000D03*
X105205000Y-112430000D03*
X107745000Y-112430000D03*
X110285000Y-112430000D03*
X112825000Y-112430000D03*
X115365000Y-112430000D03*
X117905000Y-112430000D03*
X120445000Y-112430000D03*
X122985000Y-112430000D03*
X125525000Y-112430000D03*
X128065000Y-112430000D03*
X130605000Y-112430000D03*
X133145000Y-112430000D03*
X133145000Y-89570000D03*
X130605000Y-89570000D03*
X128065000Y-89570000D03*
X125525000Y-89570000D03*
X122985000Y-89570000D03*
X120445000Y-89570000D03*
X117905000Y-89570000D03*
X115365000Y-89570000D03*
X112825000Y-89570000D03*
X110285000Y-89570000D03*
X107745000Y-89570000D03*
X105205000Y-89570000D03*
X102665000Y-89570000D03*
X100125000Y-89570000D03*
X97585000Y-89570000D03*
%TD*%
D13*
%TO.C,R2*%
X116000000Y-85080000D03*
D14*
X116000000Y-74920000D03*
%TD*%
D13*
%TO.C,R1*%
X134000000Y-85080000D03*
D14*
X134000000Y-74920000D03*
%TD*%
D15*
%TO.C,Q1*%
X109945000Y-84540000D03*
D16*
X109945000Y-82000000D03*
X109945000Y-79460000D03*
%TD*%
D13*
%TO.C,C2*%
X136000000Y-68000000D03*
X136000000Y-66000000D03*
%TD*%
%TO.C,C1*%
X113000000Y-67000000D03*
X115000000Y-67000000D03*
%TD*%
D17*
%TO.C,Barrel_Jack_Connector1*%
X98575000Y-74400000D03*
X98575000Y-68400000D03*
D18*
X93575000Y-71400000D03*
%TD*%
M02*
