%TF.GenerationSoftware,KiCad,Pcbnew,(6.0.7)*%
%TF.CreationDate,2024-02-17T17:29:39-05:00*%
%TF.ProjectId,temp_fan_controller,74656d70-5f66-4616-9e5f-636f6e74726f,rev?*%
%TF.SameCoordinates,Original*%
%TF.FileFunction,Copper,L2,Bot*%
%TF.FilePolarity,Positive*%
%FSLAX46Y46*%
G04 Gerber Fmt 4.6, Leading zero omitted, Abs format (unit mm)*
G04 Created by KiCad (PCBNEW (6.0.7)) date 2024-02-17 17:29:39*
%MOMM*%
%LPD*%
G01*
G04 APERTURE LIST*
%TA.AperFunction,ComponentPad*%
%ADD10R,1.300000X1.300000*%
%TD*%
%TA.AperFunction,ComponentPad*%
%ADD11C,1.300000*%
%TD*%
%TA.AperFunction,ComponentPad*%
%ADD12C,1.524000*%
%TD*%
%TA.AperFunction,ComponentPad*%
%ADD13C,1.600000*%
%TD*%
%TA.AperFunction,ComponentPad*%
%ADD14O,1.600000X1.600000*%
%TD*%
%TA.AperFunction,ComponentPad*%
%ADD15R,2.000000X1.905000*%
%TD*%
%TA.AperFunction,ComponentPad*%
%ADD16O,2.000000X1.905000*%
%TD*%
%TA.AperFunction,ComponentPad*%
%ADD17R,4.000000X2.200000*%
%TD*%
%TA.AperFunction,ComponentPad*%
%ADD18R,2.200000X4.000000*%
%TD*%
%TA.AperFunction,ViaPad*%
%ADD19C,0.800000*%
%TD*%
%TA.AperFunction,Conductor*%
%ADD20C,0.250000*%
%TD*%
G04 APERTURE END LIST*
D10*
%TO.P,U4,1,GND*%
%TO.N,GND*%
X124000000Y-79000000D03*
D11*
%TO.P,U4,2,DQ*%
%TO.N,Net-(R1-Pad2)*%
X125270000Y-80270000D03*
%TO.P,U4,3,VDD*%
%TO.N,Net-(R1-Pad1)*%
X124000000Y-81540000D03*
%TD*%
D12*
%TO.P,U2,1,A0(ADC0)*%
%TO.N,unconnected-(U2-Pad1)*%
X97585000Y-112430000D03*
%TO.P,U2,2,RSV*%
%TO.N,unconnected-(U2-Pad2)*%
X100125000Y-112430000D03*
%TO.P,U2,3,RSV*%
%TO.N,unconnected-(U2-Pad3)*%
X102665000Y-112430000D03*
%TO.P,U2,4,SD3(GPIO10)*%
%TO.N,unconnected-(U2-Pad4)*%
X105205000Y-112430000D03*
%TO.P,U2,5,SD2(GPIO9)*%
%TO.N,unconnected-(U2-Pad5)*%
X107745000Y-112430000D03*
%TO.P,U2,6,SD1(MOSI)*%
%TO.N,unconnected-(U2-Pad6)*%
X110285000Y-112430000D03*
%TO.P,U2,7,CMD(CS)*%
%TO.N,unconnected-(U2-Pad7)*%
X112825000Y-112430000D03*
%TO.P,U2,8,SDO(MISO)*%
%TO.N,unconnected-(U2-Pad8)*%
X115365000Y-112430000D03*
%TO.P,U2,9,CLK(SCLK)*%
%TO.N,unconnected-(U2-Pad9)*%
X117905000Y-112430000D03*
%TO.P,U2,10,GND*%
%TO.N,unconnected-(U2-Pad10)*%
X120445000Y-112430000D03*
%TO.P,U2,11,3.3V*%
%TO.N,Net-(R1-Pad1)*%
X122985000Y-112430000D03*
%TO.P,U2,12,EN*%
%TO.N,unconnected-(U2-Pad12)*%
X125525000Y-112430000D03*
%TO.P,U2,13,RST*%
%TO.N,unconnected-(U2-Pad13)*%
X128065000Y-112430000D03*
%TO.P,U2,14,GND*%
%TO.N,GND*%
X130605000Y-112430000D03*
%TO.P,U2,15,VIN*%
%TO.N,Net-(C2-Pad1)*%
X133145000Y-112430000D03*
%TO.P,U2,16,3.3V*%
%TO.N,unconnected-(U2-Pad16)*%
X133145000Y-89570000D03*
%TO.P,U2,17,GND*%
%TO.N,unconnected-(U2-Pad17)*%
X130605000Y-89570000D03*
%TO.P,U2,18,TX(GPIO1)*%
%TO.N,unconnected-(U2-Pad18)*%
X128065000Y-89570000D03*
%TO.P,U2,19,RX(DPIO3)*%
%TO.N,unconnected-(U2-Pad19)*%
X125525000Y-89570000D03*
%TO.P,U2,20,D8(GPIO15)*%
%TO.N,unconnected-(U2-Pad20)*%
X122985000Y-89570000D03*
%TO.P,U2,21,D7(GPIO13)*%
%TO.N,unconnected-(U2-Pad21)*%
X120445000Y-89570000D03*
%TO.P,U2,22,D6(GPIO12)*%
%TO.N,Net-(R1-Pad2)*%
X117905000Y-89570000D03*
%TO.P,U2,23,D5(GPIO14)*%
%TO.N,unconnected-(U2-Pad23)*%
X115365000Y-89570000D03*
%TO.P,U2,24,GND*%
%TO.N,unconnected-(U2-Pad24)*%
X112825000Y-89570000D03*
%TO.P,U2,25,3.3V*%
%TO.N,unconnected-(U2-Pad25)*%
X110285000Y-89570000D03*
%TO.P,U2,26,D4(GPIO2)*%
%TO.N,unconnected-(U2-Pad26)*%
X107745000Y-89570000D03*
%TO.P,U2,27,D3(GPIO0)*%
%TO.N,unconnected-(U2-Pad27)*%
X105205000Y-89570000D03*
%TO.P,U2,28,D2(GPIO4)*%
%TO.N,unconnected-(U2-Pad28)*%
X102665000Y-89570000D03*
%TO.P,U2,29,D1(GPIO5)*%
%TO.N,unconnected-(U2-Pad29)*%
X100125000Y-89570000D03*
%TO.P,U2,30,D0(GPIO16)*%
%TO.N,Net-(R2-Pad1)*%
X97585000Y-89570000D03*
%TD*%
D13*
%TO.P,R2,1*%
%TO.N,Net-(R2-Pad1)*%
X116000000Y-85080000D03*
D14*
%TO.P,R2,2*%
%TO.N,GND*%
X116000000Y-74920000D03*
%TD*%
D13*
%TO.P,R1,1*%
%TO.N,Net-(R1-Pad1)*%
X134000000Y-85080000D03*
D14*
%TO.P,R1,2*%
%TO.N,Net-(R1-Pad2)*%
X134000000Y-74920000D03*
%TD*%
D15*
%TO.P,Q1,1,G*%
%TO.N,Net-(R2-Pad1)*%
X109945000Y-84540000D03*
D16*
%TO.P,Q1,2,D*%
%TO.N,Net-(Q1-Pad2)*%
X109945000Y-82000000D03*
%TO.P,Q1,3,S*%
%TO.N,GND*%
X109945000Y-79460000D03*
%TD*%
D13*
%TO.P,C2,1*%
%TO.N,Net-(C2-Pad1)*%
X136000000Y-68000000D03*
%TO.P,C2,2*%
%TO.N,GND*%
X136000000Y-66000000D03*
%TD*%
%TO.P,C1,1*%
%TO.N,Net-(Barrel_Jack_Connector1-Pad1)*%
X113000000Y-67000000D03*
%TO.P,C1,2*%
%TO.N,GND*%
X115000000Y-67000000D03*
%TD*%
D17*
%TO.P,Barrel_Jack_Connector1,1*%
%TO.N,Net-(Barrel_Jack_Connector1-Pad1)*%
X98575000Y-74400000D03*
%TO.P,Barrel_Jack_Connector1,2*%
%TO.N,GND*%
X98575000Y-68400000D03*
D18*
%TO.P,Barrel_Jack_Connector1,3*%
%TO.N,unconnected-(Barrel_Jack_Connector1-Pad3)*%
X93575000Y-71400000D03*
%TD*%
D19*
%TO.N,GND*%
X98575000Y-68400000D03*
X107000000Y-75000000D03*
%TD*%
D20*
%TO.N,GND*%
X125378859Y-79000000D02*
X124000000Y-79000000D01*
X129518000Y-83139141D02*
X125378859Y-79000000D01*
X129518000Y-111343000D02*
X129518000Y-83139141D01*
X130605000Y-112430000D02*
X129518000Y-111343000D01*
X107000000Y-75000000D02*
X100400000Y-68400000D01*
X100400000Y-68400000D02*
X98575000Y-68400000D01*
%TD*%
M02*
