M48
; DRILL file {KiCad (6.0.7)} date Sun Feb 18 11:03:54 2024
; FORMAT={-:-/ absolute / inch / decimal}
; #@! TF.CreationDate,2024-02-18T11:03:54-05:00
; #@! TF.GenerationSoftware,Kicad,Pcbnew,(6.0.7)
; #@! TF.FileFunction,Plated,1,2,PTH
FMAT,2
INCH
; #@! TA.AperFunction,Plated,PTH,ViaDrill
T1C0.0157
; #@! TA.AperFunction,Plated,PTH,ComponentDrill
T2C0.0295
; #@! TA.AperFunction,Plated,PTH,ComponentDrill
T3C0.0300
; #@! TA.AperFunction,Plated,PTH,ComponentDrill
T4C0.0315
; #@! TA.AperFunction,Plated,PTH,ComponentDrill
T5C0.0433
; #@! TA.AperFunction,Plated,PTH,ComponentDrill
T6C0.0472
%
G90
G05
T1
X3.8809Y-2.6929
X4.2126Y-2.9528
T2
X4.8819Y-3.1102
X4.8819Y-3.2102
X4.9319Y-3.1602
T3
X3.8419Y-3.5264
X3.8419Y-4.4264
X3.9419Y-3.5264
X3.9419Y-4.4264
X4.0419Y-3.5264
X4.0419Y-4.4264
X4.1419Y-3.5264
X4.1419Y-4.4264
X4.2419Y-3.5264
X4.2419Y-4.4264
X4.3419Y-3.5264
X4.3419Y-4.4264
X4.4419Y-3.5264
X4.4419Y-4.4264
X4.5419Y-3.5264
X4.5419Y-4.4264
X4.6419Y-3.5264
X4.6419Y-4.4264
X4.7419Y-3.5264
X4.7419Y-4.4264
X4.8419Y-3.5264
X4.8419Y-4.4264
X4.9419Y-3.5264
X4.9419Y-4.4264
X5.0419Y-3.5264
X5.0419Y-4.4264
X5.1419Y-3.5264
X5.1419Y-4.4264
X5.2419Y-3.5264
X5.2419Y-4.4264
T4
X4.4488Y-2.6378
X4.5276Y-2.6378
X4.5669Y-2.9496
X4.5669Y-3.3496
X5.2756Y-2.9496
X5.2756Y-3.3496
X5.3543Y-2.5984
X5.3543Y-2.6772
T5
X4.3285Y-3.1283
X4.3285Y-3.2283
X4.3285Y-3.3283
T6
G00X3.6841Y-2.8543
M15
G01X3.6841Y-2.7677
M16
G05
G00X3.9242Y-2.6929
M15
G01X3.8376Y-2.6929
M16
G05
G00X3.9242Y-2.9291
M15
G01X3.8376Y-2.9291
M16
G05
T0
M30
