G04 #@! TF.GenerationSoftware,KiCad,Pcbnew,(6.0.7)*
G04 #@! TF.CreationDate,2024-02-18T11:09:31-05:00*
G04 #@! TF.ProjectId,temp_fan_controller,74656d70-5f66-4616-9e5f-636f6e74726f,rev?*
G04 #@! TF.SameCoordinates,Original*
G04 #@! TF.FileFunction,Copper,L1,Top*
G04 #@! TF.FilePolarity,Positive*
%FSLAX46Y46*%
G04 Gerber Fmt 4.6, Leading zero omitted, Abs format (unit mm)*
G04 Created by KiCad (PCBNEW (6.0.7)) date 2024-02-18 11:09:31*
%MOMM*%
%LPD*%
G01*
G04 APERTURE LIST*
G04 Aperture macros list*
%AMRoundRect*
0 Rectangle with rounded corners*
0 $1 Rounding radius*
0 $2 $3 $4 $5 $6 $7 $8 $9 X,Y pos of 4 corners*
0 Add a 4 corners polygon primitive as box body*
4,1,4,$2,$3,$4,$5,$6,$7,$8,$9,$2,$3,0*
0 Add four circle primitives for the rounded corners*
1,1,$1+$1,$2,$3*
1,1,$1+$1,$4,$5*
1,1,$1+$1,$6,$7*
1,1,$1+$1,$8,$9*
0 Add four rect primitives between the rounded corners*
20,1,$1+$1,$2,$3,$4,$5,0*
20,1,$1+$1,$4,$5,$6,$7,0*
20,1,$1+$1,$6,$7,$8,$9,0*
20,1,$1+$1,$8,$9,$2,$3,0*%
G04 Aperture macros list end*
G04 #@! TA.AperFunction,ComponentPad*
%ADD10R,1.300000X1.300000*%
G04 #@! TD*
G04 #@! TA.AperFunction,ComponentPad*
%ADD11C,1.300000*%
G04 #@! TD*
G04 #@! TA.AperFunction,SMDPad,CuDef*
%ADD12RoundRect,0.600000X1.400000X0.600000X-1.400000X0.600000X-1.400000X-0.600000X1.400000X-0.600000X0*%
G04 #@! TD*
G04 #@! TA.AperFunction,ComponentPad*
%ADD13C,1.524000*%
G04 #@! TD*
G04 #@! TA.AperFunction,SMDPad,CuDef*
%ADD14R,2.000000X1.500000*%
G04 #@! TD*
G04 #@! TA.AperFunction,SMDPad,CuDef*
%ADD15R,2.000000X3.800000*%
G04 #@! TD*
G04 #@! TA.AperFunction,ComponentPad*
%ADD16C,1.600000*%
G04 #@! TD*
G04 #@! TA.AperFunction,ComponentPad*
%ADD17O,1.600000X1.600000*%
G04 #@! TD*
G04 #@! TA.AperFunction,ComponentPad*
%ADD18R,2.000000X1.905000*%
G04 #@! TD*
G04 #@! TA.AperFunction,ComponentPad*
%ADD19O,2.000000X1.905000*%
G04 #@! TD*
G04 #@! TA.AperFunction,ComponentPad*
%ADD20R,4.000000X2.200000*%
G04 #@! TD*
G04 #@! TA.AperFunction,ComponentPad*
%ADD21R,2.200000X4.000000*%
G04 #@! TD*
G04 #@! TA.AperFunction,ViaPad*
%ADD22C,0.800000*%
G04 #@! TD*
G04 #@! TA.AperFunction,Conductor*
%ADD23C,0.250000*%
G04 #@! TD*
G04 APERTURE END LIST*
D10*
X124000000Y-79000000D03*
D11*
X125270000Y-80270000D03*
X124000000Y-81540000D03*
D12*
X98000000Y-80000000D03*
X98000000Y-84000000D03*
D13*
X97585000Y-112430000D03*
X100125000Y-112430000D03*
X102665000Y-112430000D03*
X105205000Y-112430000D03*
X107745000Y-112430000D03*
X110285000Y-112430000D03*
X112825000Y-112430000D03*
X115365000Y-112430000D03*
X117905000Y-112430000D03*
X120445000Y-112430000D03*
X122985000Y-112430000D03*
X125525000Y-112430000D03*
X128065000Y-112430000D03*
X130605000Y-112430000D03*
X133145000Y-112430000D03*
X133145000Y-89570000D03*
X130605000Y-89570000D03*
X128065000Y-89570000D03*
X125525000Y-89570000D03*
X122985000Y-89570000D03*
X120445000Y-89570000D03*
X117905000Y-89570000D03*
X115365000Y-89570000D03*
X112825000Y-89570000D03*
X110285000Y-89570000D03*
X107745000Y-89570000D03*
X105205000Y-89570000D03*
X102665000Y-89570000D03*
X100125000Y-89570000D03*
X97585000Y-89570000D03*
D14*
X121850000Y-63700000D03*
X121850000Y-66000000D03*
X121850000Y-68300000D03*
D15*
X128150000Y-66000000D03*
D16*
X116000000Y-85080000D03*
D17*
X116000000Y-74920000D03*
D16*
X134000000Y-85080000D03*
D17*
X134000000Y-74920000D03*
D18*
X109945000Y-84540000D03*
D19*
X109945000Y-82000000D03*
X109945000Y-79460000D03*
D16*
X136000000Y-68000000D03*
X136000000Y-66000000D03*
X113000000Y-67000000D03*
X115000000Y-67000000D03*
D20*
X98575000Y-74400000D03*
X98575000Y-68400000D03*
D21*
X93575000Y-71400000D03*
D22*
X98575000Y-68400000D03*
X107000000Y-75000000D03*
D23*
X109945000Y-77945000D02*
X107000000Y-75000000D01*
X109945000Y-79460000D02*
X109945000Y-77945000D01*
X123730000Y-80270000D02*
X125270000Y-80270000D01*
X117905000Y-86095000D02*
X123730000Y-80270000D01*
X117905000Y-89570000D02*
X117905000Y-86095000D01*
X126612000Y-86008000D02*
X127540000Y-85080000D01*
X122985000Y-112430000D02*
X126612000Y-108803000D01*
X126612000Y-108803000D02*
X126612000Y-86008000D01*
X127540000Y-85080000D02*
X124000000Y-81540000D01*
X134000000Y-85080000D02*
X127540000Y-85080000D01*
X128650000Y-80270000D02*
X134000000Y-74920000D01*
X125270000Y-80270000D02*
X128650000Y-80270000D01*
X120080000Y-79000000D02*
X116000000Y-74920000D01*
X124000000Y-79000000D02*
X120080000Y-79000000D01*
X115460000Y-84540000D02*
X116000000Y-85080000D01*
X109945000Y-84540000D02*
X115460000Y-84540000D01*
X102615000Y-84540000D02*
X97585000Y-89570000D01*
X109945000Y-84540000D02*
X102615000Y-84540000D01*
X100000000Y-82000000D02*
X98000000Y-84000000D01*
X109945000Y-82000000D02*
X100000000Y-82000000D01*
X133145000Y-91855000D02*
X133145000Y-112430000D01*
X139000000Y-86000000D02*
X133145000Y-91855000D01*
X139000000Y-75000000D02*
X139000000Y-86000000D01*
X134000000Y-70000000D02*
X139000000Y-75000000D01*
X134000000Y-70000000D02*
X136000000Y-68000000D01*
X121850000Y-68300000D02*
X126300000Y-68300000D01*
X126300000Y-68300000D02*
X128000000Y-70000000D01*
X128000000Y-70000000D02*
X134000000Y-70000000D01*
X133775000Y-63775000D02*
X136000000Y-66000000D01*
X124075000Y-63775000D02*
X133775000Y-63775000D01*
X121850000Y-66000000D02*
X124075000Y-63775000D01*
X114485000Y-74920000D02*
X109945000Y-79460000D01*
X116000000Y-74920000D02*
X114485000Y-74920000D01*
X115000000Y-73920000D02*
X116000000Y-74920000D01*
X115000000Y-67000000D02*
X115000000Y-73920000D01*
X98575000Y-79425000D02*
X98000000Y-80000000D01*
X98575000Y-74400000D02*
X98575000Y-79425000D01*
X98575000Y-74400000D02*
X105600000Y-74400000D01*
X105600000Y-74400000D02*
X113000000Y-67000000D01*
X116000000Y-66000000D02*
X115000000Y-67000000D01*
X121850000Y-66000000D02*
X116000000Y-66000000D01*
X116300000Y-63700000D02*
X121850000Y-63700000D01*
X113000000Y-67000000D02*
X116300000Y-63700000D01*
M02*
