M48
; DRILL file {KiCad (6.0.7)} date Sun Feb 18 11:10:29 2024
; FORMAT={-:-/ absolute / metric / decimal}
; #@! TF.CreationDate,2024-02-18T11:10:29-05:00
; #@! TF.GenerationSoftware,Kicad,Pcbnew,(6.0.7)
; #@! TF.FileFunction,Plated,1,2,PTH
FMAT,2
METRIC
; #@! TA.AperFunction,Plated,PTH,ViaDrill
T1C0.400
; #@! TA.AperFunction,Plated,PTH,ComponentDrill
T2C0.750
; #@! TA.AperFunction,Plated,PTH,ComponentDrill
T3C0.762
; #@! TA.AperFunction,Plated,PTH,ComponentDrill
T4C0.800
; #@! TA.AperFunction,Plated,PTH,ComponentDrill
T5C1.100
; #@! TA.AperFunction,Plated,PTH,ComponentDrill
T6C1.200
%
G90
G05
T1
X98.575Y-68.4
X107.0Y-75.0
T2
X124.0Y-79.0
X124.0Y-81.54
X125.27Y-80.27
T3
X97.585Y-89.57
X97.585Y-112.43
X100.125Y-89.57
X100.125Y-112.43
X102.665Y-89.57
X102.665Y-112.43
X105.205Y-89.57
X105.205Y-112.43
X107.745Y-89.57
X107.745Y-112.43
X110.285Y-89.57
X110.285Y-112.43
X112.825Y-89.57
X112.825Y-112.43
X115.365Y-89.57
X115.365Y-112.43
X117.905Y-89.57
X117.905Y-112.43
X120.445Y-89.57
X120.445Y-112.43
X122.985Y-89.57
X122.985Y-112.43
X125.525Y-89.57
X125.525Y-112.43
X128.065Y-89.57
X128.065Y-112.43
X130.605Y-89.57
X130.605Y-112.43
X133.145Y-89.57
X133.145Y-112.43
T4
X113.0Y-67.0
X115.0Y-67.0
X116.0Y-74.92
X116.0Y-85.08
X134.0Y-74.92
X134.0Y-85.08
X136.0Y-66.0
X136.0Y-68.0
T5
X109.945Y-79.46
X109.945Y-82.0
X109.945Y-84.54
T6
X93.575Y-72.5G85X93.575Y-70.3
G05
X99.675Y-68.4G85X97.475Y-68.4
G05
X99.675Y-74.4G85X97.475Y-74.4
G05
T0
M30
